HIERARCHY
ROOT Junyuan_V1:Solving:Hips
{
	OFFSET 0.000000 0.000000 0.000000
	CHANNELS 6 Xposition Yposition Zposition Xrotation Yrotation Zrotation
	JOINT Junyuan_V1:Solving:Spine
	{
		OFFSET 0.000000 -11.384845 2.506330
		CHANNELS 6 Xposition Yposition Zposition Xrotation Yrotation Zrotation
		JOINT Junyuan_V1:Solving:Spine1
		{
			OFFSET 0.000000 -9.451137 1.666492
			CHANNELS 6 Xposition Yposition Zposition Xrotation Yrotation Zrotation
			JOINT Junyuan_V1:Solving:Spine2
			{
				OFFSET 0.000000 -9.560415 0.836431
				CHANNELS 6 Xposition Yposition Zposition Xrotation Yrotation Zrotation
				JOINT Junyuan_V1:Solving:Spine3
				{
					OFFSET 0.000000 -9.596935 0.000000
					CHANNELS 6 Xposition Yposition Zposition Xrotation Yrotation Zrotation
					JOINT Junyuan_V1:Solving:Neck
					{
						OFFSET 0.000000 -12.338917 -1.233889
						CHANNELS 6 Xposition Yposition Zposition Xrotation Yrotation Zrotation
						JOINT Junyuan_V1:Solving:Neck1
						{
							OFFSET 0.000000 -7.011459 -0.613421
							CHANNELS 6 Xposition Yposition Zposition Xrotation Yrotation Zrotation
							JOINT Junyuan_V1:Solving:Head
							{
								OFFSET 0.000000 -6.931316 -1.222178
								CHANNELS 6 Xposition Yposition Zposition Xrotation Yrotation Zrotation
								JOINT Junyuan_V1:Solving:HeadEnd
								{
									OFFSET 0.000000 -9.728081 0.000002
									CHANNELS 6 Xposition Yposition Zposition Xrotation Yrotation Zrotation
									End Site
									{
										OFFSET 0.000000 -9.728081 0.000002
									}
								}
							}
						}
					}
					JOINT Junyuan_V1:Solving:RightShoulder
					{
						OFFSET 0.000000 -8.813511 -5.370063
						CHANNELS 6 Xposition Yposition Zposition Xrotation Yrotation Zrotation
						JOINT Junyuan_V1:Solving:RightArm
						{
							OFFSET -18.258251 -0.000008 0.000000
							CHANNELS 6 Xposition Yposition Zposition Xrotation Yrotation Zrotation
							JOINT Junyuan_V1:Solving:RightForeArm
							{
								OFFSET -29.201408 -0.000008 0.000000
								CHANNELS 6 Xposition Yposition Zposition Xrotation Yrotation Zrotation
								JOINT Junyuan_V1:Solving:RightHand
								{
									OFFSET -21.396938 -0.000008 0.000000
									CHANNELS 6 Xposition Yposition Zposition Xrotation Yrotation Zrotation
									JOINT Junyuan_V1:Solving:RightHandThumb1
									{
										OFFSET -3.324738 2.789463 -2.472237
										CHANNELS 6 Xposition Yposition Zposition Xrotation Yrotation Zrotation
										End Site
										{
											OFFSET -4.877937 0.000000 -4.923042
										}
									}
									JOINT Junyuan_V1:Solving:RightHandMiddle1
									{
										OFFSET -8.865959 -0.000004 0.056833
										CHANNELS 6 Xposition Yposition Zposition Xrotation Yrotation Zrotation
										End Site
										{
											OFFSET -6.930412 -0.000004 0.000000
										}
									}
								}
							}
						}
					}
					JOINT Junyuan_V1:Solving:LeftShoulder
					{
						OFFSET 0.000000 -8.813511 -5.370063
						CHANNELS 6 Xposition Yposition Zposition Xrotation Yrotation Zrotation
						JOINT Junyuan_V1:Solving:LeftArm
						{
							OFFSET 18.258251 -0.000008 0.000000
							CHANNELS 6 Xposition Yposition Zposition Xrotation Yrotation Zrotation
							JOINT Junyuan_V1:Solving:LeftForeArm
							{
								OFFSET 29.201408 -0.000008 0.000000
								CHANNELS 6 Xposition Yposition Zposition Xrotation Yrotation Zrotation
								JOINT Junyuan_V1:Solving:LeftHand
								{
									OFFSET 21.396938 -0.000008 0.000000
									CHANNELS 6 Xposition Yposition Zposition Xrotation Yrotation Zrotation
									JOINT Junyuan_V1:Solving:LeftHandThumb1
									{
										OFFSET 3.324738 2.789463 -2.472237
										CHANNELS 6 Xposition Yposition Zposition Xrotation Yrotation Zrotation
										End Site
										{
											OFFSET 4.877937 0.000000 -4.923042
										}
									}
									JOINT Junyuan_V1:Solving:LeftHandMiddle1
									{
										OFFSET 8.865959 -0.000004 0.056833
										CHANNELS 6 Xposition Yposition Zposition Xrotation Yrotation Zrotation
										End Site
										{
											OFFSET 6.930412 -0.000004 0.000000
										}
									}
								}
							}
						}
					}
				}
			}
		}
	}
	JOINT Junyuan_V1:Solving:RightUpLeg
	{
		OFFSET -10.758358 0.000000 0.000000
		CHANNELS 6 Xposition Yposition Zposition Xrotation Yrotation Zrotation
		JOINT Junyuan_V1:Solving:RightLeg
		{
			OFFSET 0.000000 42.048927 -0.000006
			CHANNELS 6 Xposition Yposition Zposition Xrotation Yrotation Zrotation
			JOINT Junyuan_V1:Solving:RightFoot
			{
				OFFSET 0.000000 37.321884 -0.000006
				CHANNELS 6 Xposition Yposition Zposition Xrotation Yrotation Zrotation
				JOINT Junyuan_V1:Solving:RightForeFoot
				{
					OFFSET 0.000000 3.476204 -0.000000
					CHANNELS 6 Xposition Yposition Zposition Xrotation Yrotation Zrotation
					JOINT Junyuan_V1:Solving:RightToeBase
					{
						OFFSET 0.000000 0.000000 -13.613925
						CHANNELS 6 Xposition Yposition Zposition Xrotation Yrotation Zrotation
						JOINT Junyuan_V1:Solving:RightToeBaseEnd
						{
							OFFSET 0.000000 0.000000 -4.229021
							CHANNELS 6 Xposition Yposition Zposition Xrotation Yrotation Zrotation
							End Site
							{
								OFFSET 0.000000 -4.229019 0.000000
							}
						}
					}
				}
			}
		}
	}
	JOINT Junyuan_V1:Solving:LeftUpLeg
	{
		OFFSET 10.758358 0.000000 0.000000
		CHANNELS 6 Xposition Yposition Zposition Xrotation Yrotation Zrotation
		JOINT Junyuan_V1:Solving:LeftLeg
		{
			OFFSET 0.000000 42.048927 -0.000006
			CHANNELS 6 Xposition Yposition Zposition Xrotation Yrotation Zrotation
			JOINT Junyuan_V1:Solving:LeftFoot
			{
				OFFSET 0.000000 37.321884 -0.000006
				CHANNELS 6 Xposition Yposition Zposition Xrotation Yrotation Zrotation
				JOINT Junyuan_V1:Solving:LeftForeFoot
				{
					OFFSET 0.000000 3.476204 -0.000000
					CHANNELS 6 Xposition Yposition Zposition Xrotation Yrotation Zrotation
					JOINT Junyuan_V1:Solving:LeftToeBase
					{
						OFFSET 0.000000 0.000000 -13.613925
						CHANNELS 6 Xposition Yposition Zposition Xrotation Yrotation Zrotation
						JOINT Junyuan_V1:Solving:LeftToeBaseEnd
						{
							OFFSET 0.000000 0.000000 -4.216879
							CHANNELS 6 Xposition Yposition Zposition Xrotation Yrotation Zrotation
							End Site
							{
								OFFSET 0.000000 -4.216881 0.000000
							}
						}
					}
				}
			}
		}
	}
}
MOTION
Frames: 4
Frame Time: 0.041667
1.289410 -36.841339 -89.139359 89.536711 177.084771 1.144364 0.000000 -11.384833 2.506335 11.582813 -0.691773 -3.724179 0.000000 -9.451152 1.666492 -0.727822 0.117516 -0.546804 -0.000000 -9.560411 0.836433 -1.838884 0.585570 -0.474107 -0.000001 -9.596939 0.000001 1.874571 -0.153618 0.812254 0.000001 -12.338902 -1.233889 -8.132406 0.642075 1.824684 -0.000000 -7.011456 -0.613420 4.134698 0.521952 0.316903 -0.000000 -6.931318 -1.222175 13.602486 0.087617 0.570328 0.000000 -9.728142 -0.000005 0.000004 -0.000000 0.000000 -0.000001 -8.813503 -5.370071 0.000002 20.772617 6.159994 -18.258245 0.000004 0.000003 -1.161997 -29.687253 -81.093265 -29.201422 -0.000004 0.000004 9.835012 -12.823372 2.203521 -21.396915 -0.000008 -0.000002 0.153323 -1.625837 5.387637 -3.324718 2.789464 -2.472245 0.000005 0.000007 -0.000004 -8.865932 0.000012 0.056829 0.000000 0.000001 0.000005 0.000000 -8.813499 -5.370071 -0.000009 -11.651738 -6.793388 18.258255 0.000005 0.000011 1.928515 35.765152 76.693851 29.201429 0.000006 -0.000007 -8.487346 15.715101 2.314533 21.396931 -0.000010 -0.000005 -0.544263 -2.859771 -10.780637 3.324749 2.789449 -2.472224 -0.000004 -0.000005 0.000004 8.865969 -0.000004 0.056837 -0.000000 -0.000001 0.000002 -10.758356 0.000023 0.000006 1.283440 6.610389 -5.265497 -0.000003 42.048935 -0.000005 -1.989167 -0.000000 -0.000000 -0.000000 37.321892 -0.000012 13.833979 15.223619 7.314317 -0.000004 3.476196 -0.000010 -0.000000 0.000003 -0.000001 -0.000002 0.000010 -13.613928 2.971952 -0.000003 -0.000000 -0.000003 -0.000007 -4.229026 0.000000 0.000000 -0.000002 10.758362 0.000003 0.000009 -2.511884 -1.323518 -0.859574 -0.000001 42.048916 -0.000001 3.466508 0.000001 -0.000000 0.000000 37.321888 -0.000017 6.401181 -10.208833 -2.356072 0.000001 3.476204 -0.000008 -0.000001 -0.000002 -0.000000 0.000005 0.000001 -13.613914 11.258019 -0.000004 0.000001 -0.000001 -0.000007 -4.216878 0.000002 -0.000000 0.000001 
1.253873 -36.702782 -89.146133 89.445500 176.940873 1.068947 0.000000 -11.384824 2.506327 11.680513 -0.732711 -3.826205 0.000000 -9.451157 1.666497 -0.683619 0.120933 -0.567129 0.000000 -9.560405 0.836434 -1.804184 0.629054 -0.498871 -0.000001 -9.596936 -0.000000 1.917103 -0.145287 0.795754 -0.000000 -12.338901 -1.233903 -8.144739 0.655694 1.852369 0.000000 -7.011476 -0.613415 4.154593 0.536094 0.349506 0.000000 -6.931314 -1.222169 13.591916 0.090359 0.629586 -0.000000 -9.728065 -0.000007 0.000002 0.000000 0.000000 0.000002 -8.813515 -5.370076 0.000007 20.639901 6.063479 -18.258253 -0.000016 0.000007 -1.234652 -30.015031 -81.258405 -29.201401 -0.000013 0.000006 8.963121 -13.153314 2.055615 -21.396942 0.000001 -0.000000 0.143444 -1.941924 4.225069 -3.324757 2.789444 -2.472238 0.000002 0.000012 -0.000004 -8.865974 0.000001 0.056828 -0.000003 0.000000 0.000000 0.000001 -8.813519 -5.370076 -0.000004 -11.480532 -6.738762 18.258257 -0.000026 0.000003 1.718856 36.027667 76.970536 29.201420 -0.000007 -0.000007 -8.730378 16.184973 2.451004 21.396957 0.000004 0.000007 -0.523822 -3.032761 -9.804674 3.324720 2.789461 -2.472229 0.000002 -0.000005 -0.000003 8.865945 0.000012 0.056835 0.000005 -0.000001 0.000001 -10.758357 0.000014 -0.000001 1.105843 6.711364 -5.156779 -0.000002 42.048912 -0.000004 -1.996313 -0.000000 -0.000001 0.000001 37.321903 -0.000012 13.875424 15.292327 7.245068 0.000001 3.476197 -0.000002 -0.000001 -0.000001 -0.000001 0.000002 0.000013 -13.613927 3.037913 -0.000003 0.000002 -0.000002 0.000000 -4.229031 0.000000 -0.000001 -0.000000 10.758359 0.000012 -0.000007 -2.953816 -1.308390 -0.832680 -0.000001 42.048923 -0.000002 3.965175 0.000001 -0.000000 -0.000001 37.321892 0.000001 6.162288 -10.222912 -1.608738 0.000000 3.476204 0.000005 -0.000000 -0.000000 -0.000000 0.000001 0.000006 -13.613917 11.414314 -0.000003 0.000000 0.000004 0.000015 -4.216881 -0.000002 -0.000002 0.000002 
1.216804 -36.576569 -89.149765 89.371646 176.788477 1.006124 -0.000000 -11.384846 2.506320 11.789088 -0.773225 -3.932911 0.000000 -9.451130 1.666498 -0.642840 0.124730 -0.585122 0.000001 -9.560431 0.836431 -1.766771 0.673207 -0.526143 -0.000001 -9.596915 0.000006 1.971261 -0.137072 0.780434 -0.000002 -12.338893 -1.233884 -8.159544 0.660248 1.897072 0.000000 -7.011512 -0.613433 4.173506 0.566869 0.368592 0.000000 -6.931318 -1.222175 13.580681 0.090377 0.652547 -0.000001 -9.728096 -0.000009 0.000002 -0.000000 0.000000 -0.000002 -8.813477 -5.370059 0.000007 20.501547 5.934405 -18.258247 0.000013 0.000004 -1.311860 -30.323888 -81.379710 -29.201416 0.000009 0.000011 8.155406 -13.427809 1.906107 -21.396917 -0.000016 -0.000008 0.120809 -2.400299 2.882051 -3.324715 2.789451 -2.472237 0.000005 0.000002 -0.000000 -8.865959 -0.000006 0.056831 0.000001 0.000001 -0.000000 -0.000001 -8.813477 -5.370059 -0.000004 -11.327903 -6.707640 18.258245 -0.000045 -0.000008 1.469378 36.398167 77.276378 29.201401 -0.000008 -0.000008 -9.040359 16.555783 2.595848 21.396940 -0.000003 0.000001 -0.486500 -3.126249 -8.850119 3.324726 2.789429 -2.472237 -0.000002 -0.000012 0.000004 8.865949 -0.000019 0.056834 -0.000004 -0.000002 -0.000003 -10.758356 0.000001 -0.000014 0.965664 6.919986 -5.063376 -0.000001 42.048946 -0.000018 -2.002388 -0.000000 0.000000 -0.000000 37.321892 0.000003 13.896147 15.261708 7.178432 -0.000000 3.476204 -0.000007 0.000000 0.000000 0.000001 -0.000000 0.000012 -13.613930 3.074437 -0.000001 -0.000000 -0.000004 -0.000001 -4.229017 -0.000002 0.000003 0.000001 10.758358 -0.000006 -0.000015 -3.465232 -1.693288 -0.855259 -0.000002 42.048923 -0.000006 4.654457 0.000001 -0.000000 -0.000002 37.321922 -0.000003 5.771209 -9.816263 -0.739551 -0.000002 3.476212 0.000001 -0.000000 0.000004 -0.000000 -0.000005 0.000007 -13.613918 11.538169 0.000001 -0.000001 -0.000003 -0.000001 -4.216869 -0.000002 0.000002 -0.000000 
1.176599 -36.437355 -89.156334 89.286487 176.619157 0.923136 -0.000000 -11.384851 2.506336 11.900456 -0.809084 -4.010256 -0.000001 -9.451147 1.666502 -0.595806 0.129653 -0.602805 -0.000001 -9.560422 0.836428 -1.726898 0.718199 -0.557648 -0.000001 -9.596907 0.000001 2.019843 -0.119594 0.740608 -0.000003 -12.338916 -1.233877 -8.171741 0.649956 1.918294 0.000000 -7.011463 -0.613423 4.177201 0.588510 0.417903 -0.000000 -6.931293 -1.222166 13.560228 0.090101 0.692170 0.000000 -9.728111 -0.000002 -0.000000 0.000000 -0.000000 -0.000002 -8.813515 -5.370049 0.000004 20.356720 5.817975 -18.258249 -0.000044 0.000013 -1.420425 -30.498290 -81.491431 -29.201418 -0.000002 -0.000002 7.524638 -13.664425 1.787353 -21.396935 -0.000000 -0.000004 0.065957 -2.921727 1.293665 -3.324719 2.789448 -2.472221 -0.000002 0.000005 -0.000005 -8.865952 0.000008 0.056850 0.000003 -0.000001 -0.000001 -0.000001 -8.813511 -5.370049 -0.000007 -11.166647 -6.654430 18.258240 -0.000011 0.000007 1.203647 36.903475 77.582712 29.201406 -0.000003 -0.000002 -9.493848 16.841653 2.773914 21.396931 -0.000015 0.000012 -0.445333 -3.140178 -8.076188 3.324713 2.789436 -2.472230 -0.000005 -0.000009 -0.000003 8.865920 0.000005 0.056836 -0.000005 -0.000002 -0.000001 -10.758356 -0.000018 0.000004 0.784550 7.117360 -4.942433 -0.000001 42.048950 -0.000028 -1.974805 -0.000000 -0.000000 -0.000003 37.321861 -0.000015 13.905503 15.264757 7.097685 0.000001 3.476196 0.000008 0.000003 -0.000001 0.000000 0.000004 0.000018 -13.613932 3.111861 -0.000006 0.000003 0.000001 0.000007 -4.229033 -0.000001 -0.000002 -0.000000 10.758360 0.000006 0.000001 -3.979322 -1.824178 -0.843258 -0.000001 42.048943 -0.000006 5.310847 0.000001 0.000000 -0.000000 37.321877 -0.000009 5.390443 -9.742798 0.310738 0.000000 3.476196 -0.000000 -0.000002 0.000002 -0.000000 -0.000002 0.000006 -13.613910 11.945552 -0.000001 -0.000001 -0.000004 0.000009 -4.216885 0.000004 0.000003 -0.000000 
